<svg width="78" height="78" viewBox="0 0 78 78" fill="none" xmlns="http://www.w3.org/2000/svg">
<path fill-rule="evenodd" clip-rule="evenodd" d="M0 4C0 1.79086 1.79086 0 4 0H68C70.2091 0 72 1.79086 72 4V66.3431L76.8284 71.1716C78.3905 72.7337 78.3905 75.2663 76.8284 76.8284C75.2663 78.3905 72.7337 78.3905 71.1716 76.8284L66.3431 72H4C1.79086 72 0 70.2091 0 68V4ZM64 58.3431L54.3284 48.6716C52.7663 47.1095 50.2337 47.1095 48.6716 48.6716C47.1095 50.2337 47.1095 52.7663 48.6716 54.3284L58.3431 64H8V8H64V58.3431Z" fill="#9785CB"/>
<path d="M14.5 20.5V14.5H20.5V20.5H14.5Z" fill="#F5F5F5"/>
<path fill-rule="evenodd" clip-rule="evenodd" d="M13.5 14.5C13.5 13.9477 13.9477 13.5 14.5 13.5H20.5C21.0523 13.5 21.5 13.9477 21.5 14.5V20.5C21.5 21.0523 21.0523 21.5 20.5 21.5H14.5C13.9477 21.5 13.5 21.0523 13.5 20.5V14.5ZM15.5 15.5V19.5H19.5V15.5H15.5Z" fill="#F5F5F5"/>
<path fill-rule="evenodd" clip-rule="evenodd" d="M10 11C10 10.4477 10.4477 10 11 10H24C24.5523 10 25 10.4477 25 11V24C25 24.5523 24.5523 25 24 25H11C10.4477 25 10 24.5523 10 24V11ZM12 12V23H23V12H12Z" fill="#F5F5F5"/>
<path d="M51.5 20.5V14.5H57.5V20.5H51.5Z" fill="#F5F5F5"/>
<path fill-rule="evenodd" clip-rule="evenodd" d="M50.5 14.5C50.5 13.9477 50.9477 13.5 51.5 13.5H57.5C58.0523 13.5 58.5 13.9477 58.5 14.5V20.5C58.5 21.0523 58.0523 21.5 57.5 21.5H51.5C50.9477 21.5 50.5 21.0523 50.5 20.5V14.5ZM52.5 15.5V19.5H56.5V15.5H52.5Z" fill="#F5F5F5"/>
<path fill-rule="evenodd" clip-rule="evenodd" d="M47 11C47 10.4477 47.4477 10 48 10H61C61.5523 10 62 10.4477 62 11V24C62 24.5523 61.5523 25 61 25H48C47.4477 25 47 24.5523 47 24V11ZM49 12V23H60V12H49Z" fill="#F5F5F5"/>
<path d="M14.5 57.5V51.5H20.5V57.5H14.5Z" fill="#F5F5F5"/>
<path fill-rule="evenodd" clip-rule="evenodd" d="M13.5 51.5C13.5 50.9477 13.9477 50.5 14.5 50.5H20.5C21.0523 50.5 21.5 50.9477 21.5 51.5V57.5C21.5 58.0523 21.0523 58.5 20.5 58.5H14.5C13.9477 58.5 13.5 58.0523 13.5 57.5V51.5ZM15.5 52.5V56.5H19.5V52.5H15.5Z" fill="#F5F5F5"/>
<path fill-rule="evenodd" clip-rule="evenodd" d="M10 48C10 47.4477 10.4477 47 11 47H24C24.5523 47 25 47.4477 25 48V61C25 61.5523 24.5523 62 24 62H11C10.4477 62 10 61.5523 10 61V48ZM12 49V60H23V49H12Z" fill="#F5F5F5"/>
<path d="M20.9525 28.96V31.888L16.8005 32.176V42.304C16.8005 42.704 16.6565 43.048 16.3685 43.336C16.0965 43.624 15.7525 43.768 15.3365 43.768H13.2965V32.464L9.48047 32.728V30.04L20.9525 28.96Z" fill="#F5F5F5"/>
<path d="M28.5743 41.128C29.6143 41.128 30.4623 40.72 31.1183 39.904C31.7903 39.088 32.1263 37.904 32.1263 36.352C32.1263 34.912 31.8383 33.824 31.2623 33.088C30.6863 32.336 29.9423 31.96 29.0303 31.96C27.9743 31.96 27.1023 32.368 26.4143 33.184C25.7263 34 25.3823 35.184 25.3823 36.736C25.3823 38.176 25.6783 39.272 26.2703 40.024C26.8623 40.76 27.6303 41.128 28.5743 41.128ZM22.1423 36.928C22.1423 35.36 22.4223 34.008 22.9823 32.872C23.5583 31.736 24.3343 30.848 25.3103 30.208C26.3023 29.552 27.4223 29.152 28.6703 29.008C29.0863 28.976 29.3983 28.96 29.6063 28.96C30.8063 28.96 31.8783 29.224 32.8223 29.752C33.7823 30.28 34.5343 31.08 35.0783 32.152C35.6383 33.224 35.9183 34.552 35.9183 36.136C35.9183 37.848 35.5903 39.304 34.9343 40.504C34.2943 41.704 33.4223 42.6 32.3183 43.192C31.2303 43.784 30.0143 44.08 28.6703 44.08C27.4223 44.08 26.3023 43.808 25.3103 43.264C24.3343 42.736 23.5583 41.936 22.9823 40.864C22.4223 39.792 22.1423 38.48 22.1423 36.928Z" fill="#F5F5F5"/>
<path d="M43.7853 41.128C44.8253 41.128 45.6733 40.72 46.3293 39.904C47.0013 39.088 47.3373 37.904 47.3373 36.352C47.3373 34.912 47.0493 33.824 46.4733 33.088C45.8973 32.336 45.1533 31.96 44.2413 31.96C43.1853 31.96 42.3133 32.368 41.6253 33.184C40.9373 34 40.5933 35.184 40.5933 36.736C40.5933 38.176 40.8893 39.272 41.4813 40.024C42.0733 40.76 42.8413 41.128 43.7853 41.128ZM37.3533 36.928C37.3533 35.36 37.6333 34.008 38.1933 32.872C38.7693 31.736 39.5453 30.848 40.5213 30.208C41.5133 29.552 42.6333 29.152 43.8813 29.008C44.2973 28.976 44.6093 28.96 44.8173 28.96C46.0173 28.96 47.0893 29.224 48.0333 29.752C48.9933 30.28 49.7453 31.08 50.2893 32.152C50.8493 33.224 51.1293 34.552 51.1293 36.136C51.1293 37.848 50.8013 39.304 50.1453 40.504C49.5053 41.704 48.6333 42.6 47.5293 43.192C46.4413 43.784 45.2253 44.08 43.8813 44.08C42.6333 44.08 41.5133 43.808 40.5213 43.264C39.5453 42.736 38.7693 41.936 38.1933 40.864C37.6333 39.792 37.3533 38.48 37.3533 36.928Z" fill="#F5F5F5"/>
<path d="M62.5962 40.624V42.424C62.5962 42.792 62.4602 43.112 62.1882 43.384C61.9162 43.656 61.5882 43.792 61.2042 43.792H53.0442V30.04L56.1882 29.248V40.936L62.5962 40.624Z" fill="#F5F5F5"/>
<path fill-rule="evenodd" clip-rule="evenodd" d="M26.5 11.5C26.5 10.9477 26.9477 10.5 27.5 10.5H32.5C33.0523 10.5 33.5 10.9477 33.5 11.5V15C33.5 15.5523 33.0523 16 32.5 16H28.5V18H38V11.5C38 10.9477 38.4477 10.5 39 10.5H44C44.5523 10.5 45 10.9477 45 11.5V23.5C45 24.0523 44.5523 24.5 44 24.5H27.5C26.9477 24.5 26.5 24.0523 26.5 23.5C26.5 22.9477 26.9477 22.5 27.5 22.5H43V12.5H40V19C40 19.5523 39.5523 20 39 20H27.5C26.9477 20 26.5 19.5523 26.5 19V15C26.5 14.4477 26.9477 14 27.5 14H31.5V12.5H27.5C26.9477 12.5 26.5 12.0523 26.5 11.5Z" fill="#F5F5F5"/>
<path fill-rule="evenodd" clip-rule="evenodd" d="M36 10.5C36.5523 10.5 37 10.9477 37 11.5V15.5C37 16.0523 36.5523 16.5 36 16.5C35.4477 16.5 35 16.0523 35 15.5V11.5C35 10.9477 35.4477 10.5 36 10.5ZM27.5 47C28.0523 47 28.5 47.4477 28.5 48V58.5H33V56.5H30.5C29.9477 56.5 29.5 56.0523 29.5 55.5V48C29.5 47.4477 29.9477 47 30.5 47H44C44.5523 47 45 47.4477 45 48V53.5C45 54.0523 44.5523 54.5 44 54.5H40.5C39.9477 54.5 39.5 54.0523 39.5 53.5V52H34C33.4477 52 33 51.5523 33 51C33 50.4477 33.4477 50 34 50H40.5C41.0523 50 41.5 50.4477 41.5 51V52.5H43V49H31.5V54.5H34C34.5523 54.5 35 54.9477 35 55.5V59.5C35 60.0523 34.5523 60.5 34 60.5H27.5C26.9477 60.5 26.5 60.0523 26.5 59.5V48C26.5 47.4477 26.9477 47 27.5 47Z" fill="#F5F5F5"/>
<path fill-rule="evenodd" clip-rule="evenodd" d="M37 53C37.5523 53 38 53.4477 38 54V58.5H40.5V57C40.5 56.4477 40.9477 56 41.5 56H45C45.1874 56 45.3711 56.0527 45.53 56.152L49.53 58.652C49.9083 58.8884 50.0842 59.3469 49.9612 59.7757C49.8383 60.2045 49.4461 60.5 49 60.5H45C44.4477 60.5 44 60.0523 44 59.5V58H42.5V59.5C42.5 60.0523 42.0523 60.5 41.5 60.5H37C36.4477 60.5 36 60.0523 36 59.5V54C36 53.4477 36.4477 53 37 53Z" fill="#F5F5F5"/>
<path fill-rule="evenodd" clip-rule="evenodd" d="M56.5761 46.6173C56.7309 46.2436 57.0956 46 57.5 46H62C62.5523 46 63 46.4477 63 47V51.5C63 51.9045 62.7564 52.2691 62.3827 52.4239C62.009 52.5787 61.5789 52.4931 61.2929 52.2071L56.7929 47.7071C56.5069 47.4211 56.4214 46.991 56.5761 46.6173ZM59.9142 48L61 49.0858V48H59.9142Z" fill="#F5F5F5"/>
</svg>
