<svg width="64" height="16" viewBox="0 0 64 16" fill="none" xmlns="http://www.w3.org/2000/svg">
<path d="M13.8228 0V3.09841L8.81998 3.40317V14.1206C8.81998 14.5439 8.64647 14.9079 8.29946 15.2127C7.97172 15.5175 7.55723 15.6698 7.05599 15.6698H4.59796V3.70794L0 3.9873V1.14286L13.8228 0Z" fill="#F5F5F5"/>
<path d="M23.0065 12.8762C24.2596 12.8762 25.2814 12.4444 26.0718 11.581C26.8815 10.7175 27.2864 9.46455 27.2864 7.82222C27.2864 6.29841 26.9394 5.14709 26.2453 4.36825C25.5513 3.57249 24.6548 3.1746 23.556 3.1746C22.2836 3.1746 21.2329 3.60635 20.4039 4.46984C19.5749 5.33333 19.1604 6.58624 19.1604 8.22857C19.1604 9.75238 19.5171 10.9122 20.2304 11.7079C20.9437 12.4868 21.8691 12.8762 23.0065 12.8762ZM15.2565 8.43175C15.2565 6.77249 15.5939 5.3418 16.2686 4.13968C16.9627 2.93757 17.8977 1.99788 19.0737 1.32063C20.2689 0.626455 21.6184 0.203176 23.1222 0.0507945C23.6234 0.0169315 23.9994 0 24.25 0C25.6959 0 26.9876 0.279365 28.125 0.838095C29.2817 1.39682 30.1878 2.24339 30.8433 3.37778C31.518 4.51217 31.8554 5.91746 31.8554 7.59365C31.8554 9.40529 31.4602 10.946 30.6698 12.2159C29.8986 13.4857 28.8479 14.4339 27.5177 15.0603C26.2068 15.6868 24.7416 16 23.1222 16C21.6184 16 20.2689 15.7122 19.0737 15.1365C17.8977 14.5778 16.9627 13.7312 16.2686 12.5968C15.5939 11.4624 15.2565 10.0741 15.2565 8.43175Z" fill="#F5F5F5"/>
<path d="M41.3344 12.8762C42.5875 12.8762 43.6093 12.4444 44.3997 11.581C45.2094 10.7175 45.6143 9.46455 45.6143 7.82222C45.6143 6.29841 45.2673 5.14709 44.5732 4.36825C43.8792 3.57249 42.9827 3.1746 41.8839 3.1746C40.6115 3.1746 39.5608 3.60635 38.7318 4.46984C37.9028 5.33333 37.4883 6.58624 37.4883 8.22857C37.4883 9.75238 37.845 10.9122 38.5583 11.7079C39.2716 12.4868 40.197 12.8762 41.3344 12.8762ZM33.5844 8.43175C33.5844 6.77249 33.9218 5.3418 34.5965 4.13968C35.2905 2.93757 36.2256 1.99788 37.4016 1.32063C38.5968 0.626455 39.9463 0.203176 41.4501 0.0507945C41.9513 0.0169315 42.3273 0 42.5779 0C44.0238 0 45.3154 0.279365 46.4529 0.838095C47.6096 1.39682 48.5157 2.24339 49.1712 3.37778C49.8459 4.51217 50.1833 5.91746 50.1833 7.59365C50.1833 9.40529 49.7881 10.946 48.9977 12.2159C48.2265 13.4857 47.1758 14.4339 45.8456 15.0603C44.5347 15.6868 43.0695 16 41.4501 16C39.9463 16 38.5968 15.7122 37.4016 15.1365C36.2256 14.5778 35.2905 13.7312 34.5965 12.5968C33.9218 11.4624 33.5844 10.0741 33.5844 8.43175Z" fill="#F5F5F5"/>
<path d="M64 12.3429V14.2476C64 14.637 63.8361 14.9757 63.5084 15.2635C63.1807 15.5513 62.7854 15.6952 62.3228 15.6952H52.4906V1.14286L56.2789 0.304762V12.673L64 12.3429Z" fill="#F5F5F5"/>
</svg>
